<?xml version="1.0" encoding="UTF-8"?>
<svg width="93px" height="40px" viewBox="0 0 93 40" version="1.1" xmlns="http://www.w3.org/2000/svg" xmlns:xlink="http://www.w3.org/1999/xlink">
    <!-- Generator: Sketch 42 (36781) - http://www.bohemiancoding.com/sketch -->
    <title>Beta Logo</title>
    <desc>Created with Sketch.</desc>
    <defs>
        <polygon id="path-1" points="0 39.9155918 92.5598367 39.9155918 92.5598367 0 0 0"></polygon>
    </defs>
    <g id="Page-1" stroke="none" stroke-width="1" fill="none" fill-rule="evenodd">
        <g id="Menu" transform="translate(-180.000000, -20.000000)">
            <g id="Main">
                <g id="Beta-Logo" transform="translate(180.000000, 20.000000)">
                    <polygon id="Fill-1" fill="#FFFFFF" points="0 0.560391837 0 24.0870857 17.7137959 24.0870857 17.7137959 18.0573714 7.27053061 18.0573714 7.27053061 0.560391837"></polygon>
                    <path d="M42.072702,14.991951 C42.072702,21.5163592 38.5375184,24.6459918 31.3327837,24.6459918 C24.1290286,24.6459918 20.5585796,21.5163592 20.5585796,14.991951 L20.5585796,0.560440816 L27.8297633,0.560440816 L27.8297633,13.3782367 C27.8297633,15.7831347 27.8297633,18.7811755 31.3657633,18.7811755 C34.8023347,18.7811755 34.8023347,15.7831347 34.8023347,13.3782367 L34.8023347,0.560440816 L42.072702,0.560440816 L42.072702,14.991951 Z" id="Fill-2" fill="#FFFFFF"></path>
                    <path d="M53.0989878,16.179151 C53.0989878,16.7722939 53.1976,17.2981714 53.3634776,17.7278857 C53.8916408,19.1450286 55.480049,19.440049 56.834498,19.440049 C58.0224163,19.440049 59.843151,19.0457633 59.843151,17.2981714 C59.843151,16.0797224 58.8180082,15.7504163 54.7509061,14.5967837 C51.0176816,13.5425796 46.7540082,12.5213551 46.7540082,7.77588571 C46.7540082,2.33915102 51.4127837,4.89795918e-05 56.272049,4.89795918e-05 C61.392702,4.89795918e-05 65.9221714,1.94470204 66.1216816,7.67727347 L59.2454367,7.67727347 C59.3768653,6.78731429 58.9771918,6.19417143 58.3861714,5.79988571 C57.7931918,5.37098776 56.9660898,5.20657959 56.2390694,5.20657959 C55.2462531,5.20657959 53.6266612,5.46878367 53.6266612,6.78731429 C53.7579265,8.4691102 57.131151,8.83074286 60.4676408,9.7533551 C63.8064163,10.675151 67.1130286,12.224702 67.1130286,16.5414367 C67.1130286,22.6699265 61.4583347,24.6467429 56.2047837,24.6467429 C53.5278857,24.6467429 45.8949061,23.691151 45.8274776,16.179151 L53.0989878,16.179151 Z" id="Fill-4" fill="#FFFFFF"></path>
                    <polygon id="Fill-6" fill="#FFFFFF" points="85.2905796 0.560408163 85.2905796 8.73134694 78.4793143 8.73134694 78.4793143 0.560408163 71.2092735 0.560408163 71.2092735 24.087102 78.4793143 24.087102 78.4793143 14.7610612 85.2905796 14.7610612 85.2905796 24.087102 92.5598041 24.087102 92.5598041 0.560408163"></polygon>
                    <mask id="mask-2" fill="white">
                        <use xlink:href="#path-1"></use>
                    </mask>
                    <g id="Clip-9"></g>
                    <polygon id="Fill-8" fill="#FFFFFF" mask="url(#mask-2)" points="68.8537143 39.9152653 92.5598367 39.9152653 92.5598367 30.6764082 68.8537143 30.6764082"></polygon>
                    <path d="M71.755902,37.3003429 L73.4847184,37.3003429 C73.7818612,37.3003429 74.0127184,37.2234449 74.1769633,37.069649 C74.3412082,36.9158531 74.4233306,36.6980571 74.4233306,36.4164245 C74.4233306,36.1400163 74.3412082,35.9274449 74.1769633,35.7788735 C74.0127184,35.630302 73.7818612,35.5560163 73.4847184,35.5560163 L71.755902,35.5560163 L71.755902,37.3003429 Z M71.755902,34.8518531 L73.3516571,34.8518531 C73.5862694,34.8518531 73.7818612,34.7854041 73.9384327,34.6525061 C74.0948408,34.5194449 74.1730449,34.3277714 74.1730449,34.0774857 C74.1730449,33.7958531 74.1026776,33.5978122 73.9617796,33.4830367 C73.8210449,33.3684245 73.6176163,33.3109551 73.3516571,33.3109551 L71.755902,33.3109551 L71.755902,34.8518531 Z M70.7781061,32.5130776 L73.4925551,32.5130776 C73.9931265,32.5130776 74.3945959,32.6278531 74.6971265,32.8572408 C74.9994939,33.0867918 75.1508408,33.4335673 75.1508408,33.8975673 C75.1508408,34.1792 75.0816163,34.4205061 74.9434939,34.6211592 C74.8052082,34.8219755 74.6084735,34.9770776 74.3529633,35.0866286 L74.3529633,35.102302 C74.6971265,35.1752816 74.9578612,35.3382204 75.1351673,35.5911184 C75.3124735,35.8441796 75.4011265,36.1609143 75.4011265,36.541649 C75.4011265,36.7605878 75.3621061,36.9653224 75.2837388,37.1556898 C75.2055347,37.3460571 75.0829224,37.510302 74.9162286,37.6484245 C74.7492082,37.7867102 74.5354939,37.8962612 74.2747592,37.9769143 C74.0138612,38.0578939 73.7036571,38.0982204 73.3438204,38.0982204 L70.7781061,38.0982204 L70.7781061,32.5130776 Z" id="Fill-10" fill="#000000" mask="url(#mask-2)"></path>
                    <polygon id="Fill-11" fill="#000000" mask="url(#mask-2)" points="76.2170939 32.5130122 80.2378286 32.5130122 80.2378286 33.3579102 77.1948898 33.3579102 77.1948898 34.8206041 80.0110531 34.8206041 80.0110531 35.6184816 77.1948898 35.6184816 77.1948898 37.2534204 80.2925224 37.2534204 80.2925224 38.0981551 76.2170939 38.0981551"></polygon>
                    <polygon id="Fill-12" fill="#000000" mask="url(#mask-2)" points="81.0903673 32.5130122 85.6116735 32.5130122 85.6116735 33.3579102 83.836 33.3579102 83.836 38.0981551 82.8582041 38.0981551 82.8582041 33.3579102 81.0903673 33.3579102"></polygon>
                    <path d="M87.1683592,35.8766694 L88.8736653,35.8766694 L88.0366041,33.4752 L88.0132571,33.4752 L87.1683592,35.8766694 Z M87.5125224,32.5130776 L88.552849,32.5130776 L90.7040327,38.0982204 L89.6558694,38.0982204 L89.1317878,36.6198531 L86.9024,36.6198531 L86.3783184,38.0982204 L85.3691755,38.0982204 L87.5125224,32.5130776 Z" id="Fill-13" fill="#000000" mask="url(#mask-2)"></path>
                    <polygon id="Fill-14" fill="#FFFFFF" mask="url(#mask-2)" points="0 30.8864 2.17387755 30.8864 4.60734694 37.7910531 4.632 37.7910531 7.00359184 30.8864 9.15281633 30.8864 9.15281633 39.7056653 7.68293878 39.7056653 7.68293878 32.8997878 7.65812245 32.8997878 5.21240816 39.7056653 3.9402449 39.7056653 1.49453061 32.8997878 1.46987755 32.8997878 1.46987755 39.7056653 0 39.7056653"></polygon>
                    <path d="M13.5745796,36.197698 L16.2673143,36.197698 L14.9456816,32.405698 L14.9086204,32.405698 L13.5745796,36.197698 Z M14.1180898,30.886351 L15.7608653,30.886351 L19.1576,39.7056163 L17.5024163,39.7056163 L16.6748245,37.3710857 L13.1546612,37.3710857 L12.3270694,39.7056163 L10.7336,39.7056163 L14.1180898,30.886351 Z" id="Fill-15" fill="#FFFFFF" mask="url(#mask-2)"></path>
                    <polygon id="Fill-16" fill="#FFFFFF" mask="url(#mask-2)" points="20.6891918 30.8864 22.3195592 30.8864 26.3463347 37.3835429 26.3709878 37.3835429 26.3709878 30.8864 27.8408653 30.8864 27.8408653 39.7056653 26.210498 39.7056653 22.1961306 33.2209306 22.1590694 33.2209306 22.1590694 39.7056653 20.6891918 39.7056653"></polygon>
                    <path d="M32.2379265,36.197698 L34.9306612,36.197698 L33.6090286,32.405698 L33.5719673,32.405698 L32.2379265,36.197698 Z M32.7814367,30.886351 L34.4242122,30.886351 L37.8209469,39.7056163 L36.1657633,39.7056163 L35.3381714,37.3710857 L31.8180082,37.3710857 L30.9904163,39.7056163 L29.3969469,39.7056163 L32.7814367,30.886351 Z" id="Fill-17" fill="#FFFFFF" mask="url(#mask-2)"></path>
                    <path d="M47.1094857,39.7056163 L46.1214041,39.7056163 L45.8866286,38.6680653 C45.4747102,39.1374531 45.0631184,39.4628408 44.6515265,39.643902 C44.2396082,39.8249633 43.7661388,39.9155755 43.2309551,39.9155755 C42.5721796,39.9155755 41.9813224,39.7939429 41.4585469,39.5511673 C40.9354449,39.3083918 40.4929959,38.9768 40.1307102,38.5568816 C39.7682612,38.1369633 39.4903837,37.6471673 39.2969143,37.0870041 C39.1034449,36.5271673 39.0066286,35.9302694 39.0066286,35.2959837 C39.0066286,34.670351 39.1034449,34.0773714 39.2969143,33.5173714 C39.4903837,32.9573714 39.7682612,32.4674122 40.1307102,32.0474939 C40.4929959,31.6275755 40.9354449,31.2940245 41.4585469,31.0470041 C41.9813224,30.7999837 42.5721796,30.6763918 43.2309551,30.6763918 C43.7085061,30.6763918 44.1635265,30.7403918 44.5958531,30.867902 C45.0281796,30.9955755 45.4129959,31.1849633 45.7507918,31.4360653 C46.0882612,31.6873306 46.3684245,32.0022694 46.5906286,32.3810449 C46.8129959,32.7598204 46.9529143,33.1962286 47.0107102,33.6902694 L45.5037714,33.6902694 C45.4624653,33.4021061 45.3739755,33.1488816 45.2381388,32.9305959 C45.102302,32.7124735 44.9313633,32.5291265 44.7254857,32.3810449 C44.5196082,32.2328 44.2890776,32.1216163 44.0338939,32.0474939 C43.7785469,31.9733714 43.5107918,31.9363102 43.2309551,31.9363102 C42.7615673,31.9363102 42.3560163,32.0310041 42.014302,32.2203918 C41.6725878,32.4099429 41.3945469,32.6631673 41.1805061,32.9800653 C40.966302,33.2971265 40.8079347,33.6574531 40.7050776,34.0608816 C40.6020571,34.4643102 40.5506286,34.8760653 40.5506286,35.2959837 C40.5506286,35.715902 40.6020571,36.1278204 40.7050776,36.531249 C40.8079347,36.9346776 40.966302,37.2950041 41.1805061,37.611902 C41.3945469,37.9291265 41.6725878,38.182351 42.014302,38.3715755 C42.3560163,38.5611265 42.7615673,38.6556571 43.2309551,38.6556571 C43.6262204,38.6639837 43.9762612,38.6125551 44.2809143,38.5013714 C44.5854041,38.3901878 44.8428735,38.2295347 45.0528327,38.0195755 C45.2627918,37.8096163 45.4213224,37.5523102 45.5284245,37.2476571 C45.6353633,36.9430041 45.6929959,36.6053714 45.7013224,36.2347592 L43.3545469,36.2347592 L43.3545469,35.0613714 L47.1094857,35.0613714 L47.1094857,39.7056163 Z" id="Fill-18" fill="#FFFFFF" mask="url(#mask-2)"></path>
                    <polygon id="Fill-19" fill="#FFFFFF" mask="url(#mask-2)" points="49.5425959 30.8864 55.8914939 30.8864 55.8914939 32.2204408 51.0865959 32.2204408 51.0865959 34.5301551 55.5332898 34.5301551 55.5332898 35.7900735 51.0865959 35.7900735 51.0865959 38.3716245 55.9778612 38.3716245 55.9778612 39.7056653 49.5425959 39.7056653"></polygon>
                    <path d="M59.6215837,34.900751 L62.1538286,34.900751 C62.6478694,34.900751 63.0224,34.7833633 63.2777469,34.548751 C63.5329306,34.3139755 63.6606041,33.9619755 63.6606041,33.4925878 C63.6606041,33.212751 63.619298,32.9843429 63.5371755,32.8070367 C63.4547265,32.6300571 63.3414204,32.492098 63.1974204,32.3933224 C63.0532571,32.2945469 62.8886857,32.228751 62.7033796,32.1957714 C62.5180735,32.1629551 62.3267265,32.146302 62.1290122,32.146302 L59.6215837,32.146302 L59.6215837,34.900751 Z M58.0775837,30.8863837 L62.2896653,30.8863837 C63.2610939,30.8863837 63.9899102,31.0963429 64.4757878,31.5162612 C64.9616653,31.9363429 65.2046041,32.5211592 65.2046041,33.2703837 C65.2046041,33.690302 65.1428898,34.0382204 65.019298,34.3139755 C64.8958694,34.5900571 64.7517061,34.8124245 64.5869714,34.9810776 C64.4222367,35.1498939 64.2596245,35.2713633 64.0991347,35.3454857 C63.9384816,35.4196082 63.8212571,35.4689143 63.7471347,35.4935673 L63.7471347,35.5183837 C63.8787265,35.5348735 64.0207673,35.5760163 64.1732571,35.6418122 C64.3255837,35.7079347 64.4676245,35.8129143 64.5993796,35.9569143 C64.7309714,36.1010776 64.8401959,36.2883429 64.9267265,36.5188735 C65.0132571,36.7494041 65.0563592,37.0375673 65.0563592,37.3835265 C65.0563592,37.9022204 65.0953796,38.3737306 65.1737469,38.7977306 C65.251951,39.2218939 65.3732571,39.5245878 65.5381551,39.705649 L63.8829714,39.705649 C63.7675429,39.5162612 63.6996245,39.306302 63.6792163,39.0756082 C63.6584816,38.8452408 63.6483592,38.6228735 63.6483592,38.4086694 C63.6483592,38.0052408 63.6235429,37.6573224 63.5742367,37.3649143 C63.5247673,37.0726694 63.4341551,36.8297306 63.3024,36.6362612 C63.1706449,36.4427918 62.9915429,36.300751 62.7650939,36.2099755 C62.5386449,36.1195265 62.2483592,36.0741388 61.8944,36.0741388 L59.6215837,36.0741388 L59.6215837,39.705649 L58.0775837,39.705649 L58.0775837,30.8863837 Z" id="Fill-20" fill="#FFFFFF" mask="url(#mask-2)"></path>
                </g>
            </g>
        </g>
    </g>
</svg>